<svg width="44" height="44" viewBox="0 0 44 44" fill="none" xmlns="http://www.w3.org/2000/svg">
<g filter="url(#filter0_d_56_267)">
<path fill-rule="evenodd" clip-rule="evenodd" d="M23 13C23 12.4477 22.5523 12 22 12C21.4477 12 21 12.4477 21 13V21H13C12.4477 21 12 21.4477 12 22C12 22.5523 12.4477 23 13 23H21V31C21 31.5523 21.4477 32 22 32C22.5523 32 23 31.5523 23 31V23H31C31.5523 23 32 22.5523 32 22C32 21.4477 31.5523 21 31 21H23V13Z" fill="#E3E5E8"/>
</g>
<defs>
<filter id="filter0_d_56_267" x="0" y="0" width="44" height="44" filterUnits="userSpaceOnUse" color-interpolation-filters="sRGB">
<feFlood flood-opacity="0" result="BackgroundImageFix"/>
<feColorMatrix in="SourceAlpha" type="matrix" values="0 0 0 0 0 0 0 0 0 0 0 0 0 0 0 0 0 0 127 0" result="hardAlpha"/>
<feOffset/>
<feGaussianBlur stdDeviation="6"/>
<feComposite in2="hardAlpha" operator="out"/>
<feColorMatrix type="matrix" values="0 0 0 0 0 0 0 0 0 0 0 0 0 0 0 0 0 0 0.25 0"/>
<feBlend mode="normal" in2="BackgroundImageFix" result="effect1_dropShadow_56_267"/>
<feBlend mode="normal" in="SourceGraphic" in2="effect1_dropShadow_56_267" result="shape"/>
</filter>
</defs>
</svg>
