<svg width="107" height="57" viewBox="0 0 107 57" fill="none" xmlns="http://www.w3.org/2000/svg">
<path d="M0.830597 12C0.830597 5.37258 6.20318 0 12.8306 0H93.5477C100.175 0 105.548 5.37258 105.548 12V57H0.830597V12Z" fill="white"/>
<path d="M0.830597 50C0.830597 43.3726 6.20318 38 12.8306 38H93.5477C100.175 38 105.548 43.3726 105.548 50V57H0.830597V50Z" fill="white"/>
<path d="M0.830597 12C0.830597 5.37258 6.20318 0 12.8306 0H93.5477C100.175 0 105.548 5.37258 105.548 12V38H0.830597V12Z" fill="white"/>
<path d="M37.9053 49.43C37.9053 49.84 37.9753 50.19 38.1153 50.48C38.2553 50.77 38.4503 51.01 38.7003 51.2C38.9503 51.38 39.2353 51.515 39.5553 51.605C39.8853 51.685 40.2403 51.725 40.6203 51.725C41.0303 51.725 41.3803 51.68 41.6703 51.59C41.9603 51.49 42.1953 51.365 42.3753 51.215C42.5553 51.065 42.6853 50.895 42.7653 50.705C42.8453 50.505 42.8853 50.305 42.8853 50.105C42.8853 49.695 42.7903 49.395 42.6003 49.205C42.4203 49.005 42.2203 48.865 42.0003 48.785C41.6203 48.645 41.1753 48.515 40.6653 48.395C40.1653 48.265 39.5453 48.1 38.8053 47.9C38.3453 47.78 37.9603 47.625 37.6503 47.435C37.3503 47.235 37.1103 47.015 36.9303 46.775C36.7503 46.535 36.6203 46.28 36.5403 46.01C36.4703 45.74 36.4353 45.465 36.4353 45.185C36.4353 44.645 36.5453 44.18 36.7653 43.79C36.9953 43.39 37.2953 43.06 37.6653 42.8C38.0353 42.54 38.4553 42.35 38.9253 42.23C39.3953 42.1 39.8703 42.035 40.3503 42.035C40.9103 42.035 41.4353 42.11 41.9253 42.26C42.4253 42.4 42.8603 42.615 43.2303 42.905C43.6103 43.195 43.9103 43.555 44.1303 43.985C44.3503 44.405 44.4603 44.895 44.4603 45.455H42.5853C42.5353 44.765 42.3003 44.28 41.8803 44C41.4603 43.71 40.9253 43.565 40.2753 43.565C40.0553 43.565 39.8303 43.59 39.6003 43.64C39.3703 43.68 39.1603 43.755 38.9703 43.865C38.7803 43.965 38.6203 44.105 38.4903 44.285C38.3703 44.465 38.3103 44.69 38.3103 44.96C38.3103 45.34 38.4253 45.64 38.6553 45.86C38.8953 46.07 39.2053 46.23 39.5853 46.34C39.6253 46.35 39.7803 46.395 40.0503 46.475C40.3303 46.545 40.6403 46.625 40.9803 46.715C41.3203 46.805 41.6503 46.895 41.9703 46.985C42.3003 47.065 42.5353 47.125 42.6753 47.165C43.0253 47.275 43.3303 47.425 43.5903 47.615C43.8503 47.805 44.0653 48.025 44.2353 48.275C44.4153 48.515 44.5453 48.775 44.6253 49.055C44.7153 49.335 44.7603 49.615 44.7603 49.895C44.7603 50.495 44.6353 51.01 44.3853 51.44C44.1453 51.86 43.8253 52.205 43.4253 52.475C43.0253 52.745 42.5703 52.94 42.0603 53.06C41.5503 53.19 41.0303 53.255 40.5003 53.255C39.8903 53.255 39.3153 53.18 38.7753 53.03C38.2353 52.88 37.7653 52.65 37.3653 52.34C36.9653 52.03 36.6453 51.635 36.4053 51.155C36.1653 50.665 36.0403 50.09 36.0303 49.43H37.9053ZM51.4869 48.44C51.4669 48.17 51.4069 47.91 51.3069 47.66C51.2169 47.41 51.0869 47.195 50.9169 47.015C50.7569 46.825 50.5569 46.675 50.3169 46.565C50.0869 46.445 49.8269 46.385 49.5369 46.385C49.2369 46.385 48.9619 46.44 48.7119 46.55C48.4719 46.65 48.2619 46.795 48.0819 46.985C47.9119 47.165 47.7719 47.38 47.6619 47.63C47.5619 47.88 47.5069 48.15 47.4969 48.44H51.4869ZM47.4969 49.565C47.4969 49.865 47.5369 50.155 47.6169 50.435C47.7069 50.715 47.8369 50.96 48.0069 51.17C48.1769 51.38 48.3919 51.55 48.6519 51.68C48.9119 51.8 49.2219 51.86 49.5819 51.86C50.0819 51.86 50.4819 51.755 50.7819 51.545C51.0919 51.325 51.3219 51 51.4719 50.57H53.0919C53.0019 50.99 52.8469 51.365 52.6269 51.695C52.4069 52.025 52.1419 52.305 51.8319 52.535C51.5219 52.755 51.1719 52.92 50.7819 53.03C50.4019 53.15 50.0019 53.21 49.5819 53.21C48.9719 53.21 48.4319 53.11 47.9619 52.91C47.4919 52.71 47.0919 52.43 46.7619 52.07C46.4419 51.71 46.1969 51.28 46.0269 50.78C45.8669 50.28 45.7869 49.73 45.7869 49.13C45.7869 48.58 45.8719 48.06 46.0419 47.57C46.2219 47.07 46.4719 46.635 46.7919 46.265C47.1219 45.885 47.5169 45.585 47.9769 45.365C48.4369 45.145 48.9569 45.035 49.5369 45.035C50.1469 45.035 50.6919 45.165 51.1719 45.425C51.6619 45.675 52.0669 46.01 52.3869 46.43C52.7069 46.85 52.9369 47.335 53.0769 47.885C53.2269 48.425 53.2669 48.985 53.1969 49.565H47.4969ZM54.4968 45.245H56.1168V46.385L56.1468 46.415C56.4068 45.985 56.7468 45.65 57.1668 45.41C57.5868 45.16 58.0518 45.035 58.5618 45.035C59.4118 45.035 60.0818 45.255 60.5718 45.695C61.0618 46.135 61.3068 46.795 61.3068 47.675V53H59.5968V48.125C59.5768 47.515 59.4468 47.075 59.2068 46.805C58.9668 46.525 58.5918 46.385 58.0818 46.385C57.7918 46.385 57.5318 46.44 57.3018 46.55C57.0718 46.65 56.8768 46.795 56.7168 46.985C56.5568 47.165 56.4318 47.38 56.3418 47.63C56.2518 47.88 56.2068 48.145 56.2068 48.425V53H54.4968V45.245ZM70.4151 53H68.7951V51.95H68.7651C68.5351 52.4 68.2001 52.725 67.7601 52.925C67.3201 53.115 66.8551 53.21 66.3651 53.21C65.7551 53.21 65.2201 53.105 64.7601 52.895C64.3101 52.675 63.9351 52.38 63.6351 52.01C63.3351 51.64 63.1101 51.205 62.9601 50.705C62.8101 50.195 62.7351 49.65 62.7351 49.07C62.7351 48.37 62.8301 47.765 63.0201 47.255C63.2101 46.745 63.4601 46.325 63.7701 45.995C64.0901 45.665 64.4501 45.425 64.8501 45.275C65.2601 45.115 65.6751 45.035 66.0951 45.035C66.3351 45.035 66.5801 45.06 66.8301 45.11C67.0801 45.15 67.3201 45.22 67.5501 45.32C67.7801 45.42 67.9901 45.55 68.1801 45.71C68.3801 45.86 68.5451 46.04 68.6751 46.25H68.7051V42.29H70.4151V53ZM64.4451 49.205C64.4451 49.535 64.4851 49.86 64.5651 50.18C64.6551 50.5 64.7851 50.785 64.9551 51.035C65.1351 51.285 65.3601 51.485 65.6301 51.635C65.9001 51.785 66.2201 51.86 66.5901 51.86C66.9701 51.86 67.2951 51.78 67.5651 51.62C67.8451 51.46 68.0701 51.25 68.2401 50.99C68.4201 50.73 68.5501 50.44 68.6301 50.12C68.7201 49.79 68.7651 49.455 68.7651 49.115C68.7651 48.255 68.5701 47.585 68.1801 47.105C67.8001 46.625 67.2801 46.385 66.6201 46.385C66.2201 46.385 65.8801 46.47 65.6001 46.64C65.3301 46.8 65.1051 47.015 64.9251 47.285C64.7551 47.545 64.6301 47.845 64.5501 48.185C64.4801 48.515 64.4451 48.855 64.4451 49.205Z" fill="#5282E0"/>
<path d="M63.3711 24.7998L63.3564 10.0635C63.3564 9.22852 62.8145 8.64258 61.9355 8.64258H47.1992C46.3789 8.64258 45.8223 9.27246 45.8223 9.97559C45.8223 10.6787 46.4521 11.2793 47.1406 11.2793H52.2383L59.3867 11.0449L56.6621 13.4326L42.1455 27.9785C41.8818 28.2422 41.7354 28.5791 41.7354 28.9014C41.7354 29.6045 42.3652 30.2637 43.0977 30.2637C43.4346 30.2637 43.7568 30.1465 44.0205 29.8682L58.5664 15.3369L60.9834 12.5977L60.7197 19.4385V24.8584C60.7197 25.5469 61.3203 26.1914 62.0381 26.1914C62.7412 26.1914 63.3711 25.5908 63.3711 24.7998Z" fill="#5282E0"/>
</svg>
