<svg width="107" height="57" viewBox="0 0 107 57" fill="none" xmlns="http://www.w3.org/2000/svg">
<path d="M0.915298 12C0.915298 5.37258 6.28788 0 12.9153 0H93.6324C100.26 0 105.632 5.37258 105.632 12V57H0.915298V12Z" fill="white"/>
<path d="M0.915298 50C0.915298 43.3726 6.28788 38 12.9153 38H93.6324C100.26 38 105.632 43.3726 105.632 50V57H0.915298V50Z" fill="white"/>
<path d="M0.915298 12C0.915298 5.37258 6.28788 0 12.9153 0H93.6324C100.26 0 105.632 5.37258 105.632 12V38H0.915298V12Z" fill="white"/>
<path d="M28.6533 42.29H30.6483L34.7733 53H32.7633L31.7583 50.165H27.4833L26.4783 53H24.5433L28.6533 42.29ZM27.9933 48.74H31.2633L29.6583 44.135H29.6133L27.9933 48.74ZM40.7882 47.84C40.7182 47.36 40.5232 47 40.2032 46.76C39.8932 46.51 39.4982 46.385 39.0182 46.385C38.7982 46.385 38.5632 46.425 38.3132 46.505C38.0632 46.575 37.8332 46.715 37.6232 46.925C37.4132 47.125 37.2382 47.41 37.0982 47.78C36.9582 48.14 36.8882 48.615 36.8882 49.205C36.8882 49.525 36.9232 49.845 36.9932 50.165C37.0732 50.485 37.1932 50.77 37.3532 51.02C37.5232 51.27 37.7382 51.475 37.9982 51.635C38.2582 51.785 38.5732 51.86 38.9432 51.86C39.4432 51.86 39.8532 51.705 40.1732 51.395C40.5032 51.085 40.7082 50.65 40.7882 50.09H42.4982C42.3382 51.1 41.9532 51.875 41.3432 52.415C40.7432 52.945 39.9432 53.21 38.9432 53.21C38.3332 53.21 37.7932 53.11 37.3232 52.91C36.8632 52.7 36.4732 52.42 36.1532 52.07C35.8332 51.71 35.5882 51.285 35.4182 50.795C35.2582 50.305 35.1782 49.775 35.1782 49.205C35.1782 48.625 35.2582 48.08 35.4182 47.57C35.5782 47.06 35.8182 46.62 36.1382 46.25C36.4582 45.87 36.8532 45.575 37.3232 45.365C37.8032 45.145 38.3632 45.035 39.0032 45.035C39.4532 45.035 39.8782 45.095 40.2782 45.215C40.6882 45.325 41.0482 45.495 41.3582 45.725C41.6782 45.955 41.9382 46.245 42.1382 46.595C42.3382 46.945 42.4582 47.36 42.4982 47.84H40.7882ZM49.1232 47.84C49.0532 47.36 48.8582 47 48.5382 46.76C48.2282 46.51 47.8332 46.385 47.3532 46.385C47.1332 46.385 46.8982 46.425 46.6482 46.505C46.3982 46.575 46.1682 46.715 45.9582 46.925C45.7482 47.125 45.5732 47.41 45.4332 47.78C45.2932 48.14 45.2232 48.615 45.2232 49.205C45.2232 49.525 45.2582 49.845 45.3282 50.165C45.4082 50.485 45.5282 50.77 45.6882 51.02C45.8582 51.27 46.0732 51.475 46.3332 51.635C46.5932 51.785 46.9082 51.86 47.2782 51.86C47.7782 51.86 48.1882 51.705 48.5082 51.395C48.8382 51.085 49.0432 50.65 49.1232 50.09H50.8332C50.6732 51.1 50.2882 51.875 49.6782 52.415C49.0782 52.945 48.2782 53.21 47.2782 53.21C46.6682 53.21 46.1282 53.11 45.6582 52.91C45.1982 52.7 44.8082 52.42 44.4882 52.07C44.1682 51.71 43.9232 51.285 43.7532 50.795C43.5932 50.305 43.5132 49.775 43.5132 49.205C43.5132 48.625 43.5932 48.08 43.7532 47.57C43.9132 47.06 44.1532 46.62 44.4732 46.25C44.7932 45.87 45.1882 45.575 45.6582 45.365C46.1382 45.145 46.6982 45.035 47.3382 45.035C47.7882 45.035 48.2132 45.095 48.6132 45.215C49.0232 45.325 49.3832 45.495 49.6932 45.725C50.0132 45.955 50.2732 46.245 50.4732 46.595C50.6732 46.945 50.7932 47.36 50.8332 47.84H49.1232ZM55.7781 53.21C55.1581 53.21 54.6031 53.11 54.1131 52.91C53.6331 52.7 53.2231 52.415 52.8831 52.055C52.5531 51.695 52.2981 51.265 52.1181 50.765C51.9481 50.265 51.8631 49.715 51.8631 49.115C51.8631 48.525 51.9481 47.98 52.1181 47.48C52.2981 46.98 52.5531 46.55 52.8831 46.19C53.2231 45.83 53.6331 45.55 54.1131 45.35C54.6031 45.14 55.1581 45.035 55.7781 45.035C56.3981 45.035 56.9481 45.14 57.4281 45.35C57.9181 45.55 58.3281 45.83 58.6581 46.19C58.9981 46.55 59.2531 46.98 59.4231 47.48C59.6031 47.98 59.6931 48.525 59.6931 49.115C59.6931 49.715 59.6031 50.265 59.4231 50.765C59.2531 51.265 58.9981 51.695 58.6581 52.055C58.3281 52.415 57.9181 52.7 57.4281 52.91C56.9481 53.11 56.3981 53.21 55.7781 53.21ZM55.7781 51.86C56.1581 51.86 56.4881 51.78 56.7681 51.62C57.0481 51.46 57.2781 51.25 57.4581 50.99C57.6381 50.73 57.7681 50.44 57.8481 50.12C57.9381 49.79 57.9831 49.455 57.9831 49.115C57.9831 48.785 57.9381 48.455 57.8481 48.125C57.7681 47.795 57.6381 47.505 57.4581 47.255C57.2781 46.995 57.0481 46.785 56.7681 46.625C56.4881 46.465 56.1581 46.385 55.7781 46.385C55.3981 46.385 55.0681 46.465 54.7881 46.625C54.5081 46.785 54.2781 46.995 54.0981 47.255C53.9181 47.505 53.7831 47.795 53.6931 48.125C53.6131 48.455 53.5731 48.785 53.5731 49.115C53.5731 49.455 53.6131 49.79 53.6931 50.12C53.7831 50.44 53.9181 50.73 54.0981 50.99C54.2781 51.25 54.5081 51.46 54.7881 51.62C55.0681 51.78 55.3981 51.86 55.7781 51.86ZM67.9247 53H66.2447V51.92H66.2147C66.0047 52.31 65.6897 52.625 65.2697 52.865C64.8597 53.095 64.4397 53.21 64.0097 53.21C62.9897 53.21 62.2497 52.96 61.7897 52.46C61.3397 51.95 61.1147 51.185 61.1147 50.165V45.245H62.8247V50C62.8247 50.68 62.9547 51.16 63.2147 51.44C63.4747 51.72 63.8397 51.86 64.3097 51.86C64.6697 51.86 64.9697 51.805 65.2097 51.695C65.4497 51.585 65.6447 51.44 65.7947 51.26C65.9447 51.07 66.0497 50.845 66.1097 50.585C66.1797 50.325 66.2147 50.045 66.2147 49.745V45.245H67.9247V53ZM69.728 45.245H71.348V46.385L71.378 46.415C71.638 45.985 71.978 45.65 72.398 45.41C72.818 45.16 73.283 45.035 73.793 45.035C74.643 45.035 75.313 45.255 75.803 45.695C76.293 46.135 76.538 46.795 76.538 47.675V53H74.828V48.125C74.808 47.515 74.678 47.075 74.438 46.805C74.198 46.525 73.823 46.385 73.313 46.385C73.023 46.385 72.763 46.44 72.533 46.55C72.303 46.65 72.108 46.795 71.948 46.985C71.788 47.165 71.663 47.38 71.573 47.63C71.483 47.88 71.438 48.145 71.438 48.425V53H69.728V45.245ZM77.5613 45.245H78.8513V42.92H80.5613V45.245H82.1063V46.52H80.5613V50.66C80.5613 50.84 80.5663 50.995 80.5763 51.125C80.5963 51.255 80.6313 51.365 80.6813 51.455C80.7413 51.545 80.8263 51.615 80.9363 51.665C81.0463 51.705 81.1963 51.725 81.3863 51.725C81.5063 51.725 81.6263 51.725 81.7463 51.725C81.8663 51.715 81.9863 51.695 82.1063 51.665V52.985C81.9163 53.005 81.7313 53.025 81.5513 53.045C81.3713 53.065 81.1863 53.075 80.9963 53.075C80.5463 53.075 80.1813 53.035 79.9013 52.955C79.6313 52.865 79.4163 52.74 79.2563 52.58C79.1063 52.41 79.0013 52.2 78.9413 51.95C78.8913 51.7 78.8613 51.415 78.8513 51.095V46.52H77.5613V45.245Z" fill="#8F96A3"/>
<path d="M40.335 31.9482H65.5596C68.6357 31.9482 70.1592 30.4395 70.1592 27.4219V11.4697C70.1592 8.45215 68.6357 6.92871 65.5596 6.92871H40.335C37.2734 6.92871 35.7354 8.45215 35.7354 11.4697V27.4219C35.7354 30.4395 37.2734 31.9482 40.335 31.9482ZM38.0938 11.6016C38.0938 10.0781 38.8994 9.28711 40.3643 9.28711H65.5303C66.9658 9.28711 67.8008 10.0781 67.8008 11.6016V12.7588H38.0938V11.6016ZM40.3643 29.5898C38.8994 29.5898 38.0938 28.8135 38.0938 27.29V16.084H67.8008V27.29C67.8008 28.8135 66.9658 29.5898 65.5303 29.5898H40.3643ZM42.3125 26.8213H45.9014C46.7656 26.8213 47.3369 26.2354 47.3369 25.415V22.7051C47.3369 21.8701 46.7656 21.2988 45.9014 21.2988H42.3125C41.4482 21.2988 40.877 21.8701 40.877 22.7051V25.415C40.877 26.2354 41.4482 26.8213 42.3125 26.8213Z" fill="#8F96A3"/>
</svg>
