<svg width="106" height="57" viewBox="0 0 106 57" fill="none" xmlns="http://www.w3.org/2000/svg">
<path d="M0.74588 12C0.74588 5.37258 6.11846 0 12.7459 0H93.463C100.09 0 105.463 5.37258 105.463 12V57H0.74588V12Z" fill="white"/>
<path d="M0.74588 50C0.74588 43.3726 6.11846 38 12.7459 38H93.463C100.09 38 105.463 43.3726 105.463 50V57H0.74588V50Z" fill="white"/>
<path d="M0.74588 12C0.74588 5.37258 6.11846 0 12.7459 0H93.463C100.09 0 105.463 5.37258 105.463 12V38H0.74588V12Z" fill="white"/>
<path d="M38.4356 53H37.2356L36.9506 51.74C36.4506 52.31 35.9506 52.705 35.4506 52.925C34.9506 53.145 34.3756 53.255 33.7256 53.255C32.9256 53.255 32.2056 53.11 31.5656 52.82C30.9356 52.52 30.4006 52.115 29.9606 51.605C29.5206 51.095 29.1806 50.5 28.9406 49.82C28.7106 49.14 28.5956 48.415 28.5956 47.645C28.5956 46.885 28.7106 46.165 28.9406 45.485C29.1806 44.805 29.5206 44.21 29.9606 43.7C30.4006 43.19 30.9356 42.785 31.5656 42.485C32.2056 42.185 32.9256 42.035 33.7256 42.035C34.3056 42.035 34.8556 42.115 35.3756 42.275C35.9056 42.425 36.3756 42.655 36.7856 42.965C37.1956 43.265 37.5356 43.645 37.8056 44.105C38.0756 44.565 38.2456 45.095 38.3156 45.695H36.4856C36.4356 45.345 36.3256 45.04 36.1556 44.78C35.9956 44.51 35.7906 44.285 35.5406 44.105C35.2906 43.925 35.0106 43.79 34.7006 43.7C34.3906 43.61 34.0656 43.565 33.7256 43.565C33.1556 43.565 32.6606 43.68 32.2406 43.91C31.8306 44.14 31.4956 44.45 31.2356 44.84C30.9756 45.22 30.7806 45.655 30.6506 46.145C30.5306 46.635 30.4706 47.135 30.4706 47.645C30.4706 48.155 30.5306 48.655 30.6506 49.145C30.7806 49.635 30.9756 50.075 31.2356 50.465C31.4956 50.845 31.8306 51.15 32.2406 51.38C32.6606 51.61 33.1556 51.725 33.7256 51.725C34.2056 51.735 34.6306 51.675 35.0006 51.545C35.3706 51.405 35.6806 51.21 35.9306 50.96C36.1906 50.7 36.3856 50.385 36.5156 50.015C36.6456 49.645 36.7156 49.235 36.7256 48.785H33.8756V47.36H38.4356V53ZM40.2324 45.245H41.8374V46.745H41.8674C41.9174 46.535 42.0124 46.33 42.1524 46.13C42.3024 45.93 42.4774 45.75 42.6774 45.59C42.8874 45.42 43.1174 45.285 43.3674 45.185C43.6174 45.085 43.8724 45.035 44.1324 45.035C44.3324 45.035 44.4674 45.04 44.5374 45.05C44.6174 45.06 44.6974 45.07 44.7774 45.08V46.73C44.6574 46.71 44.5324 46.695 44.4024 46.685C44.2824 46.665 44.1624 46.655 44.0424 46.655C43.7524 46.655 43.4774 46.715 43.2174 46.835C42.9674 46.945 42.7474 47.115 42.5574 47.345C42.3674 47.565 42.2174 47.84 42.1074 48.17C41.9974 48.5 41.9424 48.88 41.9424 49.31V53H40.2324V45.245ZM48.7972 53.21C48.1772 53.21 47.6222 53.11 47.1322 52.91C46.6522 52.7 46.2422 52.415 45.9022 52.055C45.5722 51.695 45.3172 51.265 45.1372 50.765C44.9672 50.265 44.8822 49.715 44.8822 49.115C44.8822 48.525 44.9672 47.98 45.1372 47.48C45.3172 46.98 45.5722 46.55 45.9022 46.19C46.2422 45.83 46.6522 45.55 47.1322 45.35C47.6222 45.14 48.1772 45.035 48.7972 45.035C49.4172 45.035 49.9672 45.14 50.4472 45.35C50.9372 45.55 51.3472 45.83 51.6772 46.19C52.0172 46.55 52.2722 46.98 52.4422 47.48C52.6222 47.98 52.7122 48.525 52.7122 49.115C52.7122 49.715 52.6222 50.265 52.4422 50.765C52.2722 51.265 52.0172 51.695 51.6772 52.055C51.3472 52.415 50.9372 52.7 50.4472 52.91C49.9672 53.11 49.4172 53.21 48.7972 53.21ZM48.7972 51.86C49.1772 51.86 49.5072 51.78 49.7872 51.62C50.0672 51.46 50.2972 51.25 50.4772 50.99C50.6572 50.73 50.7872 50.44 50.8672 50.12C50.9572 49.79 51.0022 49.455 51.0022 49.115C51.0022 48.785 50.9572 48.455 50.8672 48.125C50.7872 47.795 50.6572 47.505 50.4772 47.255C50.2972 46.995 50.0672 46.785 49.7872 46.625C49.5072 46.465 49.1772 46.385 48.7972 46.385C48.4172 46.385 48.0872 46.465 47.8072 46.625C47.5272 46.785 47.2972 46.995 47.1172 47.255C46.9372 47.505 46.8022 47.795 46.7122 48.125C46.6322 48.455 46.5922 48.785 46.5922 49.115C46.5922 49.455 46.6322 49.79 46.7122 50.12C46.8022 50.44 46.9372 50.73 47.1172 50.99C47.2972 51.25 47.5272 51.46 47.8072 51.62C48.0872 51.78 48.4172 51.86 48.7972 51.86ZM60.9438 53H59.2638V51.92H59.2338C59.0238 52.31 58.7088 52.625 58.2888 52.865C57.8788 53.095 57.4588 53.21 57.0288 53.21C56.0088 53.21 55.2688 52.96 54.8088 52.46C54.3588 51.95 54.1338 51.185 54.1338 50.165V45.245H55.8438V50C55.8438 50.68 55.9738 51.16 56.2338 51.44C56.4938 51.72 56.8588 51.86 57.3288 51.86C57.6888 51.86 57.9888 51.805 58.2288 51.695C58.4688 51.585 58.6638 51.44 58.8138 51.26C58.9638 51.07 59.0688 50.845 59.1288 50.585C59.1988 50.325 59.2338 50.045 59.2338 49.745V45.245H60.9438V53ZM62.7921 45.245H64.4121V46.295H64.4421C64.6821 45.845 65.0171 45.525 65.4471 45.335C65.8771 45.135 66.3421 45.035 66.8421 45.035C67.4521 45.035 67.9821 45.145 68.4321 45.365C68.8921 45.575 69.2721 45.87 69.5721 46.25C69.8721 46.62 70.0971 47.055 70.2471 47.555C70.3971 48.055 70.4721 48.59 70.4721 49.16C70.4721 49.68 70.4021 50.185 70.2621 50.675C70.1321 51.165 69.9271 51.6 69.6471 51.98C69.3771 52.35 69.0321 52.65 68.6121 52.88C68.1921 53.1 67.6971 53.21 67.1271 53.21C66.8771 53.21 66.6271 53.185 66.3771 53.135C66.1271 53.095 65.8871 53.025 65.6571 52.925C65.4271 52.825 65.2121 52.7 65.0121 52.55C64.8221 52.39 64.6621 52.205 64.5321 51.995H64.5021V55.865H62.7921V45.245ZM68.7621 49.13C68.7621 48.78 68.7171 48.44 68.6271 48.11C68.5371 47.78 68.4021 47.49 68.2221 47.24C68.0421 46.98 67.8171 46.775 67.5471 46.625C67.2771 46.465 66.9671 46.385 66.6171 46.385C65.8971 46.385 65.3521 46.635 64.9821 47.135C64.6221 47.635 64.4421 48.3 64.4421 49.13C64.4421 49.52 64.4871 49.885 64.5771 50.225C64.6771 50.555 64.8221 50.84 65.0121 51.08C65.2021 51.32 65.4271 51.51 65.6871 51.65C65.9571 51.79 66.2671 51.86 66.6171 51.86C67.0071 51.86 67.3371 51.78 67.6071 51.62C67.8771 51.46 68.0971 51.255 68.2671 51.005C68.4471 50.745 68.5721 50.455 68.6421 50.135C68.7221 49.805 68.7621 49.47 68.7621 49.13ZM73.207 50.51C73.257 51.01 73.447 51.36 73.777 51.56C74.107 51.76 74.502 51.86 74.962 51.86C75.122 51.86 75.302 51.85 75.502 51.83C75.712 51.8 75.907 51.75 76.087 51.68C76.267 51.61 76.412 51.51 76.522 51.38C76.642 51.24 76.697 51.06 76.687 50.84C76.677 50.62 76.597 50.44 76.447 50.3C76.297 50.16 76.102 50.05 75.862 49.97C75.632 49.88 75.367 49.805 75.067 49.745C74.767 49.685 74.462 49.62 74.152 49.55C73.832 49.48 73.522 49.395 73.222 49.295C72.932 49.195 72.667 49.06 72.427 48.89C72.197 48.72 72.012 48.505 71.872 48.245C71.732 47.975 71.662 47.645 71.662 47.255C71.662 46.835 71.762 46.485 71.962 46.205C72.172 45.915 72.432 45.685 72.742 45.515C73.062 45.335 73.412 45.21 73.792 45.14C74.182 45.07 74.552 45.035 74.902 45.035C75.302 45.035 75.682 45.08 76.042 45.17C76.412 45.25 76.742 45.385 77.032 45.575C77.332 45.765 77.577 46.015 77.767 46.325C77.967 46.625 78.092 46.99 78.142 47.42H76.357C76.277 47.01 76.087 46.735 75.787 46.595C75.497 46.455 75.162 46.385 74.782 46.385C74.662 46.385 74.517 46.395 74.347 46.415C74.187 46.435 74.032 46.475 73.882 46.535C73.742 46.585 73.622 46.665 73.522 46.775C73.422 46.875 73.372 47.01 73.372 47.18C73.372 47.39 73.442 47.56 73.582 47.69C73.732 47.82 73.922 47.93 74.152 48.02C74.392 48.1 74.662 48.17 74.962 48.23C75.262 48.29 75.572 48.355 75.892 48.425C76.202 48.495 76.507 48.58 76.807 48.68C77.107 48.78 77.372 48.915 77.602 49.085C77.842 49.255 78.032 49.47 78.172 49.73C78.322 49.99 78.397 50.31 78.397 50.69C78.397 51.15 78.292 51.54 78.082 51.86C77.872 52.18 77.597 52.44 77.257 52.64C76.927 52.84 76.557 52.985 76.147 53.075C75.737 53.165 75.332 53.21 74.932 53.21C74.442 53.21 73.987 53.155 73.567 53.045C73.157 52.935 72.797 52.77 72.487 52.55C72.187 52.32 71.947 52.04 71.767 51.71C71.597 51.37 71.507 50.97 71.497 50.51H73.207Z" fill="#5282E0"/>
<path d="M52.3945 17.5859C55.1836 17.5859 57.457 15.1016 57.457 12.0781C57.457 9.08984 55.2188 6.72266 52.3945 6.72266C49.6172 6.72266 47.332 9.125 47.3438 12.1016C47.3438 15.1133 49.6172 17.5859 52.3945 17.5859ZM38.8945 17.8438C41.3086 17.8438 43.2891 15.6758 43.2891 13.0156C43.2891 10.4141 41.332 8.31641 38.8945 8.31641C36.4805 8.31641 34.4883 10.4492 34.5 13.0391C34.5 15.6875 36.4805 17.8438 38.8945 17.8438ZM65.8945 17.8438C68.3086 17.8438 70.2891 15.6875 70.2891 13.0391C70.3008 10.4492 68.3086 8.31641 65.8945 8.31641C63.457 8.31641 61.5 10.4141 61.5 13.0156C61.5 15.6758 63.4805 17.8438 65.8945 17.8438ZM52.3945 15.8164C50.6836 15.8164 49.2305 14.1758 49.2305 12.1016C49.2188 10.0625 50.6602 8.49219 52.3945 8.49219C54.1523 8.49219 55.5703 10.0391 55.5703 12.0781C55.5703 14.1523 54.1289 15.8164 52.3945 15.8164ZM38.8945 16.0977C37.4531 16.0977 36.2461 14.7266 36.2461 13.0391C36.2461 11.3867 37.4414 10.0625 38.8945 10.0625C40.3711 10.0625 41.5547 11.3633 41.5547 13.0156C41.5547 14.7266 40.3359 16.0977 38.8945 16.0977ZM65.8945 16.0977C64.4531 16.0977 63.2344 14.7266 63.2344 13.0156C63.2344 11.3633 64.418 10.0625 65.8945 10.0625C67.3477 10.0625 68.543 11.3867 68.543 13.0391C68.543 14.7266 67.3242 16.0977 65.8945 16.0977ZM32.3672 28.5898H41.5664C41.0039 28.2734 40.582 27.5703 40.6641 26.8555H32.0859C31.8398 26.8555 31.7344 26.7617 31.7344 26.5391C31.7344 23.6328 35.0508 20.9141 38.8828 20.9141C40.3477 20.9141 41.6836 21.2656 42.8203 21.9336C43.1836 21.4648 43.6172 21.0547 44.1445 20.6914C42.6328 19.6953 40.8164 19.1797 38.8828 19.1797C33.9727 19.1797 29.9883 22.7422 29.9883 26.6445C29.9883 27.9453 30.7852 28.5898 32.3672 28.5898ZM72.4219 28.5898C74.0039 28.5898 74.8008 27.9453 74.8008 26.6445C74.8008 22.7422 70.8164 19.1797 65.9062 19.1797C63.9727 19.1797 62.1562 19.6953 60.6445 20.6914C61.1719 21.0547 61.6055 21.4648 61.9688 21.9336C63.1055 21.2656 64.4297 20.9141 65.9062 20.9141C69.7383 20.9141 73.0547 23.6328 73.0547 26.5391C73.0547 26.7617 72.9492 26.8555 72.7031 26.8555H64.125C64.207 27.5703 63.7734 28.2734 63.2227 28.5898H72.4219ZM45.0352 28.5898H59.7539C61.6992 28.5898 62.6367 28.0039 62.6367 26.7148C62.6367 23.6445 58.7578 19.2031 52.3945 19.2031C46.0312 19.2031 42.1523 23.6445 42.1523 26.7148C42.1523 28.0039 43.0781 28.5898 45.0352 28.5898ZM44.4727 26.8203C44.168 26.8203 44.0391 26.7383 44.0391 26.4922C44.0391 24.5703 47.0156 20.9727 52.3945 20.9727C57.7734 20.9727 60.75 24.5703 60.75 26.4922C60.75 26.7383 60.6211 26.8203 60.3164 26.8203H44.4727Z" fill="#5282E0"/>
</svg>
