<svg width="106" height="57" viewBox="0 0 106 57" fill="none" xmlns="http://www.w3.org/2000/svg">
<path d="M0 12C0 5.37258 5.37258 0 12 0H92.7171C99.3445 0 104.717 5.37258 104.717 12V57H0V12Z" fill="white"/>
<path d="M0 50C0 43.3726 5.37258 38 12 38H92.7171C99.3445 38 104.717 43.3726 104.717 50V57H0V50Z" fill="white"/>
<path d="M0 12C0 5.37258 5.37258 0 12 0H92.7171C99.3445 0 104.717 5.37258 104.717 12V38H0V12Z" fill="white"/>
<path d="M33.1703 42.29H35.0453V46.55H39.9203V42.29H41.7953V53H39.9203V48.17H35.0453V53H33.1703V42.29ZM47.3555 53.21C46.7355 53.21 46.1805 53.11 45.6905 52.91C45.2105 52.7 44.8005 52.415 44.4605 52.055C44.1305 51.695 43.8755 51.265 43.6955 50.765C43.5255 50.265 43.4405 49.715 43.4405 49.115C43.4405 48.525 43.5255 47.98 43.6955 47.48C43.8755 46.98 44.1305 46.55 44.4605 46.19C44.8005 45.83 45.2105 45.55 45.6905 45.35C46.1805 45.14 46.7355 45.035 47.3555 45.035C47.9755 45.035 48.5255 45.14 49.0055 45.35C49.4955 45.55 49.9055 45.83 50.2355 46.19C50.5755 46.55 50.8305 46.98 51.0005 47.48C51.1805 47.98 51.2705 48.525 51.2705 49.115C51.2705 49.715 51.1805 50.265 51.0005 50.765C50.8305 51.265 50.5755 51.695 50.2355 52.055C49.9055 52.415 49.4955 52.7 49.0055 52.91C48.5255 53.11 47.9755 53.21 47.3555 53.21ZM47.3555 51.86C47.7355 51.86 48.0655 51.78 48.3455 51.62C48.6255 51.46 48.8555 51.25 49.0355 50.99C49.2155 50.73 49.3455 50.44 49.4255 50.12C49.5155 49.79 49.5605 49.455 49.5605 49.115C49.5605 48.785 49.5155 48.455 49.4255 48.125C49.3455 47.795 49.2155 47.505 49.0355 47.255C48.8555 46.995 48.6255 46.785 48.3455 46.625C48.0655 46.465 47.7355 46.385 47.3555 46.385C46.9755 46.385 46.6455 46.465 46.3655 46.625C46.0855 46.785 45.8555 46.995 45.6755 47.255C45.4955 47.505 45.3605 47.795 45.2705 48.125C45.1905 48.455 45.1505 48.785 45.1505 49.115C45.1505 49.455 45.1905 49.79 45.2705 50.12C45.3605 50.44 45.4955 50.73 45.6755 50.99C45.8555 51.25 46.0855 51.46 46.3655 51.62C46.6455 51.78 46.9755 51.86 47.3555 51.86ZM52.6921 45.245H54.3121V46.325H54.3571C54.4871 46.135 54.6271 45.96 54.7771 45.8C54.9271 45.64 55.0921 45.505 55.2721 45.395C55.4621 45.285 55.6771 45.2 55.9171 45.14C56.1571 45.07 56.4321 45.035 56.7421 45.035C57.2121 45.035 57.6471 45.14 58.0471 45.35C58.4571 45.56 58.7471 45.885 58.9171 46.325C59.2071 45.925 59.5421 45.61 59.9221 45.38C60.3021 45.15 60.7771 45.035 61.3471 45.035C62.1671 45.035 62.8021 45.235 63.2521 45.635C63.7121 46.035 63.9421 46.705 63.9421 47.645V53H62.2321V48.47C62.2321 48.16 62.2221 47.88 62.2021 47.63C62.1821 47.37 62.1221 47.15 62.0221 46.97C61.9321 46.78 61.7921 46.635 61.6021 46.535C61.4121 46.435 61.1521 46.385 60.8221 46.385C60.2421 46.385 59.8221 46.565 59.5621 46.925C59.3021 47.285 59.1721 47.795 59.1721 48.455V53H57.4621V48.02C57.4621 47.48 57.3621 47.075 57.1621 46.805C56.9721 46.525 56.6171 46.385 56.0971 46.385C55.8771 46.385 55.6621 46.43 55.4521 46.52C55.2521 46.61 55.0721 46.74 54.9121 46.91C54.7621 47.08 54.6371 47.29 54.5371 47.54C54.4471 47.79 54.4021 48.075 54.4021 48.395V53H52.6921V45.245ZM71.0689 48.44C71.0489 48.17 70.9889 47.91 70.8889 47.66C70.7989 47.41 70.6689 47.195 70.4989 47.015C70.3389 46.825 70.1389 46.675 69.8989 46.565C69.6689 46.445 69.4089 46.385 69.1189 46.385C68.8189 46.385 68.5439 46.44 68.2939 46.55C68.0539 46.65 67.8439 46.795 67.6639 46.985C67.4939 47.165 67.3539 47.38 67.2439 47.63C67.1439 47.88 67.0889 48.15 67.0789 48.44H71.0689ZM67.0789 49.565C67.0789 49.865 67.1189 50.155 67.1989 50.435C67.2889 50.715 67.4189 50.96 67.5889 51.17C67.7589 51.38 67.9739 51.55 68.2339 51.68C68.4939 51.8 68.8039 51.86 69.1639 51.86C69.6639 51.86 70.0639 51.755 70.3639 51.545C70.6739 51.325 70.9039 51 71.0539 50.57H72.6739C72.5839 50.99 72.4289 51.365 72.2089 51.695C71.9889 52.025 71.7239 52.305 71.4139 52.535C71.1039 52.755 70.7539 52.92 70.3639 53.03C69.9839 53.15 69.5839 53.21 69.1639 53.21C68.5539 53.21 68.0139 53.11 67.5439 52.91C67.0739 52.71 66.6739 52.43 66.3439 52.07C66.0239 51.71 65.7789 51.28 65.6089 50.78C65.4489 50.28 65.3689 49.73 65.3689 49.13C65.3689 48.58 65.4539 48.06 65.6239 47.57C65.8039 47.07 66.0539 46.635 66.3739 46.265C66.7039 45.885 67.0989 45.585 67.5589 45.365C68.0189 45.145 68.5389 45.035 69.1189 45.035C69.7289 45.035 70.2739 45.165 70.7539 45.425C71.2439 45.675 71.6489 46.01 71.9689 46.43C72.2889 46.85 72.5189 47.335 72.6589 47.885C72.8089 48.425 72.8489 48.985 72.7789 49.565H67.0789Z" fill="#5282E0"/>
<path d="M43.5137 32.3359H62.0117C63.9531 32.3359 65.0879 31.2285 65.0879 29.3145V16.1758L66.9883 17.7754C67.2617 18.0078 67.5762 18.2129 67.959 18.2129C68.6016 18.2129 69.1211 17.8164 69.1211 17.1602C69.1211 16.75 68.9844 16.4766 68.6973 16.2305L65.0879 13.1953V7.53516C65.0879 6.93359 64.7051 6.55078 64.1035 6.55078H62.6406C62.0527 6.55078 61.6562 6.93359 61.6562 7.53516V10.3105L54.4648 4.26758C53.4531 3.40625 52.1953 3.40625 51.1699 4.26758L36.9238 16.2305C36.623 16.4766 36.4863 16.8047 36.4863 17.1191C36.4863 17.6797 36.9238 18.2129 37.6621 18.2129C38.0449 18.2129 38.3594 18.0078 38.6465 17.7754L40.4238 16.2715V29.3145C40.4238 31.2285 41.5586 32.3359 43.5137 32.3359ZM56.748 20.9746C56.748 20.3457 56.3379 19.9355 55.709 19.9355H49.9121C49.2695 19.9355 48.8594 20.3457 48.8594 20.9746V30.1348H43.9785C43.1035 30.1348 42.625 29.6426 42.625 28.7539V14.4258L52.332 6.29102C52.6328 6.01758 53.002 6.01758 53.3027 6.29102L62.8867 14.3301V28.7539C62.8867 29.6426 62.4082 30.1348 61.5469 30.1348H56.748V20.9746Z" fill="#5282E0"/>
</svg>
